<svg viewBox="0 0 1024 1024" version="1.1" xmlns="http://www.w3.org/2000/svg">
    <path d="M810.666667 853.333333H170.666667a85.333333 85.333333 0 0 1-85.333334-85.333333V256c0-47.36 37.973333-85.333333 85.333334-85.333333h256l85.333333 85.333333h298.666667c46.805333 0 85.333333 38.528 85.333333 85.333333H170.666667v426.666667l91.306666-341.333333h728.32l-97.28 362.666666c-9.813333 37.12-43.093333 64-82.346666 64z"
          fill="#0288D1"/>
    <path d="M850.56 494.165333c-5.333333 0-10.24 0.128-13.909333 0.426667-28.714667 2.56-55.509333 15.061333-73.856 34.56-9.216 9.813333-17.536 23.808-21.589334 36.352-4.48 13.824-4.48 13.568-4.437333 35.2 0 27.690667 1.408 34.56 10.837333 52.906667 9.472 18.517333 23.893333 33.621333 44.672 46.848 9.130667 5.802667 32.512 17.493333 51.541334 25.728 41.514667 17.962667 54.656 26.282667 60.757333 38.4l2.517333 4.949333v10.453333c0 10.112-0.042667 10.624-2.133333 14.805334-4.650667 9.6-15.701333 17.493333-29.866667 21.333333-5.333333 1.408-7.808 1.621333-19.754666 1.621333-11.690667 0-14.549333-0.256-19.925334-1.578666a76.458667 76.458667 0 0 1-23.424-9.728c-7.552-5.034667-22.4-20.053333-28.458666-28.757334-2.645333-3.84-5.333333-6.997333-5.973334-6.997333-0.938667 0-52.181333 29.269333-61.098666 34.986667-3.029333 1.877333-3.797333 2.773333-3.797334 4.266666 0 3.2 11.946667 21.333333 21.333334 32.298667 19.114667 22.4 57.429333 42.112 91.306666 47.061333 13.44 1.962667 35.712 2.56 51.285334 1.450667a150.186667 150.186667 0 0 0 31.573333-5.973333c40.106667-11.733333 67.413333-36.693333 77.525333-70.826667 4.138667-13.866667 5.845333-30.976 4.48-45.44-2.816-29.610667-11.946667-50.56-29.866666-68.693333-16.725333-16.810667-39.637333-30.378667-84.821334-50.218667-39.253333-17.194667-49.493333-23.893333-55.082666-35.968-4.906667-10.410667-3.968-24.746667 2.133333-33.664 7.253333-10.453333 21.888-15.573333 38.229333-13.44 15.189333 2.005333 25.002667 8.064 34.645334 21.248 4.992 6.826667 8.448 10.410667 10.154666 10.410667 1.621333 0 8.704-4.352 30.634667-18.944 22.357333-14.805333 29.354667-19.84 29.866667-21.333334 0.725333-2.389333-2.773333-7.893333-13.013334-20.48-20.565333-25.173333-44.757333-38.570667-75.776-41.941333a275.84 275.84 0 0 0-26.666666-1.322667z m-246.954667 4.266667h-62.848c-121.344 0.128-149.461333 0.341333-150.229333 1.109333-0.768 0.768-0.938667 8.192-0.938667 35.968v34.986667l55.168 0.213333 55.168 0.170667v156.16c0 85.888 0.213333 156.885333 0.469334 157.781333l0.426666 1.621334h40.106667c35.84 0 40.106667-0.085333 40.533333-1.152 0.213333-0.64 0.384-71.594667 0.384-157.738667V570.88l55.168-0.213333 55.168-0.213334v-35.413333c0-30.72-0.128-35.498667-1.109333-36.096-0.512-0.341333-32.170667-0.512-87.466667-0.554667z"
          fill="#90CAF9"/>
</svg>